<svg aria-hidden="true" style="position: absolute; width: 0; height: 0; overflow: hidden;" version="1.1" xmlns="http://www.w3.org/2000/svg" xmlns:xlink="http://www.w3.org/1999/xlink">
    <defs>
        <symbol id="facebook" viewBox="0 0 32 32">
            <path fill="#fff" style="fill: var(--color1, #fff)" d="M22.143 15.971h-4.033v14.865h-6.112v-14.865h-2.906v-5.222h2.906v-3.382c0-2.417 1.142-6.204 6.167-6.204l4.527 0.019v5.072h-3.284c-0.538 0-1.297 0.272-1.297 1.425v3.073h4.567l-0.534 5.219z"></path>
        </symbol>
        <symbol id="github" viewBox="0 0 32 32">
            <path fill="#fff" style="fill: var(--color1, #fff)" d="M16 0c-8.789 0-16 7.211-16 16 0 7.499 5.262 14.312 12.25 16v-5.293c-0.276 0.070-0.593 0.109-0.919 0.109-0.398 0-0.781-0.059-1.143-0.169l0.028 0.007c-0.946-0.278-1.714-0.909-2.285-1.869-0.363-0.613-1.008-1.28-1.68-1.23l-0.165-1.867c1.454-0.125 2.71 0.886 3.456 2.139 0.333 0.558 0.715 0.885 1.205 1.029 0.472 0.141 0.981 0.074 1.573-0.136 0.149-1.186 0.693-1.629 1.104-2.256-4.168-0.621-5.829-2.832-6.488-4.576-0.874-2.318-0.405-5.213 1.139-7.043 0.030-0.035 0.085-0.128 0.064-0.192-0.709-2.141 0.154-3.91 0.186-4.098 0.818 0.24 0.95-0.243 3.552 1.336l0.448 0.27c0.189 0.112 0.128 0.048 0.317 0.032 1.003-0.282 2.157-0.452 3.349-0.469l0.010-0c1.136 0.014 2.272 0.176 3.403 0.483l0.146 0.016c-0.013-0.003 0.040-0.010 0.128-0.062 3.248-1.968 3.131-1.325 4.003-1.608 0.032 0.189 0.882 1.987 0.182 4.099-0.096 0.291 2.816 2.957 1.202 7.235-0.659 1.744-2.32 3.957-6.486 4.578 0.534 0.816 1.176 1.248 1.173 2.928v6.606c6.986-1.688 12.25-8.501 12.25-16 0-8.789-7.211-16-16-16z"></path>
        </symbol>
        <symbol id="slider-home" viewBox="0 0 32 32">
            <path fill="#d31342" style="fill: var(--color2, #d31342)" d="M31.618 15.643c0.237-0.258 0.382-0.603 0.382-0.983 0-0.438-0.194-0.832-0.501-1.098l-0.002-0.002-13.637-11.931c-0.293-0.248-0.676-0.399-1.093-0.399-0.431 0-0.824 0.16-1.124 0.425l0.002-0.002-13.681 12.544c-0.292 0.266-0.474 0.647-0.474 1.071 0 0.391 0.155 0.746 0.408 1.007l-0-0 0.345 0.357c0.566 0.591 1.487 0.665 2.053 0.158l1.022-0.916v13.406c0 0.825 0.665 1.489 1.489 1.489h5.329c0.822 0 1.489-0.665 1.489-1.489v-9.378h6.806v9.378c-0.012 0.822 0.576 1.489 1.398 1.489h5.652c0.822 0 1.487-0.665 1.487-1.489v-13.218l0.633 0.556c0.347 0.305 1.078 0.059 1.63-0.549l0.389-0.426z"></path>
        </symbol>
        <symbol id="icon-burger" viewBox="0 0 32 32">
            <path fill="none" stroke="#d41443" style="stroke: var(--color3, #d41443)" stroke-linejoin="miter" stroke-linecap="butt" stroke-miterlimit="4" stroke-width="1.6" d="M0 6.4h32M0 16h32M0 25.6h32"></path>
        </symbol>
        <symbol id="icon-button" viewBox="0 0 32 32">
            <path fill="none" stroke="#d41443" style="stroke: var(--color3, #d41443)" stroke-linejoin="round" stroke-linecap="round" stroke-miterlimit="4" stroke-width="6.4" d="M9.6 3.2l12.8 12.8-12.8 12.8"></path>
        </symbol>
        <symbol id="icon-button-white" viewBox="0 0 32 32">
            <path fill="none" stroke="#fff" style="stroke: var(--color1, #fff)" stroke-linejoin="round" stroke-linecap="round" stroke-miterlimit="4" stroke-width="6.4" d="M8.371 3.2l14.17 12.8-14.17 12.8"></path>
        </symbol>
        <symbol id="icon-close" viewBox="0 0 32 32">
            <path d="M31.439 3.166l-3.166-3.166-12.553 12.553-12.553-12.553-3.166 3.166 12.553 12.553-12.553 12.553 3.166 3.166 12.553-12.553 12.553 12.553 3.166-3.166-12.553-12.553 12.553-12.553z"></path>
        </symbol>
        <symbol id="telegram" viewBox="0 0 32 32">
            <path fill="#fff" style="fill: var(--color1, #fff)" d="M12.612 19.671l-0.49 6.444c0.703 0 1.007-0.282 1.372-0.62l3.292-2.938 6.822 4.665c1.251 0.65 2.134 0.307 2.473-1.075l4.477-19.587c0.399-1.727-0.669-2.401-1.887-1.978l-26.323 9.407c-1.796 0.652-1.77 1.585-0.305 2.012l6.729 1.952 15.632-9.129c0.736-0.455 1.405-0.204 0.855 0.252l-12.647 10.596z"></path>
        </symbol>
        <symbol id="arrow-right" viewBox="0 0 32 32">
            <path d="m19.414 27.414 10-10a2 2 0 0 0 0-2.828l-10-10a2 2 0 1 0-2.828 2.828L23.172 14H4a2 2 0 1 0 0 4h19.172l-6.586 6.586c-.39.39-.586.902-.586 1.414s.195 1.024.586 1.414a2 2 0 0 0 2.828 0z"/>
        </symbol>
        <symbol id="icon-name" viewBox="0 0 32 32">
            <path d="M16.003 0c0.031-0 0.067-0.001 0.103-0.001 4.409 0 7.984 3.575 7.984 7.984s-3.575 7.984-7.984 7.984c-0.036 0-0.073-0-0.109-0.001l0.006 0c-4.365-0.058-7.881-3.61-7.881-7.983s3.516-7.925 7.875-7.983l0.006-0zM28.967 17.368h-0.040l-6.036-2.989c-0.115-0.057-0.25-0.091-0.393-0.091-0.33 0-0.618 0.178-0.773 0.444l-0.002 0.004c-1.612 2.671-3.516 4.961-5.713 6.931l-0.028 0.025c-2.214-1.989-4.109-4.272-5.64-6.8l-0.075-0.133c-0.157-0.27-0.446-0.449-0.776-0.449-0.143 0-0.278 0.033-0.397 0.093l0.005-0.002-6.047 2.968h-0.040c-0.266 0.158-0.441 0.444-0.441 0.771 0 0.158 0.041 0.307 0.113 0.436l-0.002-0.005c1.757 3.009 3.767 5.605 6.067 7.911l-0.001-0.001-0.003 0.001c0.032 0.033 0.067 0.064 0.1 0.096 0.447 0.447 0.901 0.885 1.369 1.308 0.108 0.099 0.22 0.192 0.329 0.289 0.42 0.371 0.843 0.74 1.28 1.093 0.192 0.156 0.393 0.303 0.588 0.455 0.369 0.288 0.736 0.579 1.116 0.852 0.587 0.424 1.184 0.833 1.795 1.223 0.195 0.126 0.434 0.201 0.69 0.201 0.241 0 0.466-0.066 0.659-0.182l-0.006 0.003c0.649-0.416 1.283-0.853 1.904-1.307 0.091-0.067 0.176-0.137 0.267-0.204 0.477-0.355 0.951-0.716 1.413-1.093 0.312-0.253 0.613-0.52 0.917-0.784 0.227-0.196 0.453-0.388 0.675-0.589 0.393-0.357 0.773-0.727 1.152-1.1 0.081-0.080 0.169-0.157 0.251-0.239l-0.005-0.003c2.309-2.311 4.325-4.915 5.988-7.751l0.098-0.181c0.066-0.121 0.104-0.266 0.104-0.419 0-0.336-0.185-0.628-0.458-0.781l-0.005-0.002z"></path>
        </symbol>
        <symbol id="icon-close-modal" viewBox="0 0 32 32">
            <path d="M31.439 3.166l-3.166-3.166-12.553 12.553-12.553-12.553-3.166 3.166 12.553 12.553-12.553 12.553 3.166 3.166 12.553-12.553 12.553 12.553 3.166-3.166-12.553-12.553 12.553-12.553z"></path>
        </symbol>
        <symbol id="icon-phone" viewBox="0 0 32 32">
            <path d="M22 20c-2 2-2 4-4 4s-4-2-6-4-4-4-4-6 2-2 4-4-4-8-6-8-6 6-6 6c0 4 4.109 12.109 8 16s12 8 16 8c0 0 6-4 6-6s-6-8-8-6z"></path>
        </symbol>
        <symbol id="icon-user" viewBox="0 0 32 32">
            <path d="M18 22.082v-1.649c2.203-1.241 4-4.337 4-7.432 0-4.971 0-9-6-9s-6 4.029-6 9c0 3.096 1.797 6.191 4 7.432v1.649c-6.784 0.555-12 3.888-12 7.918h28c0-4.030-5.216-7.364-12-7.918z"></path>
        </symbol>
        <symbol id="icon-mail4" viewBox="0 0 32 32">
            <path d="M16 0c-8.837 0-16 7.163-16 16s7.163 16 16 16 16-7.163 16-16-7.163-16-16-16zM8 8h16c0.286 0 0.563 0.061 0.817 0.177l-8.817 10.286-8.817-10.287c0.254-0.116 0.531-0.177 0.817-0.177zM6 22v-12c0-0.042 0.002-0.084 0.004-0.125l5.864 6.842-5.8 5.8c-0.045-0.167-0.069-0.34-0.069-0.517zM24 24h-16c-0.177 0-0.35-0.024-0.517-0.069l5.691-5.691 2.826 3.297 2.826-3.297 5.691 5.691c-0.167 0.045-0.34 0.069-0.517 0.069zM26 22c0 0.177-0.024 0.35-0.069 0.517l-5.8-5.8 5.865-6.842c0.003 0.041 0.004 0.083 0.004 0.125v12z"></path>
        </symbol>
        <symbol id="icon-icon3" viewBox="0 0 28 32">
            <path d="M0 0h28.16v32h-28.16v-32z"></path>
        </symbol>
        <symbol id="icon-basket" viewBox="0 0 32 32">
            <path d="M12 29c0 1.657-1.343 3-3 3s-3-1.343-3-3c0-1.657 1.343-3 3-3s3 1.343 3 3z"></path>
            <path d="M32 29c0 1.657-1.343 3-3 3s-3-1.343-3-3c0-1.657 1.343-3 3-3s3 1.343 3 3z"></path>
            <path d="M32 16v-12h-24c0-1.105-0.895-2-2-2h-6v2h4l1.502 12.877c-0.915 0.733-1.502 1.859-1.502 3.123 0 2.209 1.791 4 4 4h24v-2h-24c-1.105 0-2-0.895-2-2 0-0.007 0-0.014 0-0.020l26-3.98z"></path>
        </symbol>
        <symbol id="icon-close-modal" viewBox="0 0 32 32">
            <path d="M31.439 3.166l-3.166-3.166-12.553 12.553-12.553-12.553-3.166 3.166 12.553 12.553-12.553 12.553 3.166 3.166 12.553-12.553 12.553 12.553 3.166-3.166-12.553-12.553 12.553-12.553z"></path>
        </symbol>
        <symbol id="icon-forward" viewBox="0 0 18 18">
            <path d="M16.711 8.29l-6-5.996c-0.391-0.391-1.026-0.391-1.417 0s-0.391 1.025 0 1.417l4.293 4.29h-11.59c-0.553 0-1.001 0.448-1.001 1s0.448 1 1.001 1h11.59l-4.292 4.29c-0.391 0.391-0.391 1.025 0.001 1.417s1.026 0.391 1.417 0l6-5.997c0.196-0.196 0.294-0.453 0.294-0.71s-0.097-0.514-0.294-0.71z"></path>
        </symbol>
        <symbol id="icon-more" viewBox="0 0 22 32">
            <path fill="none" stroke="#d41443" style="stroke: var(--color1, #d41443)" stroke-linejoin="round" stroke-linecap="round" stroke-miterlimit="4" stroke-width="6.4" d="M3.321 3.2l14.974 12.8-14.974 12.8"></path>
        </symbol>
        <symbol id="icon-telegram" viewBox="0 0 40 32">
<path fill="#fff" style="fill: var(--color1, #fff)" d="M16.205 20.751l-0.635 8.339c0.909 0 1.302-0.364 1.774-0.802l4.261-3.801 8.829 6.035c1.619 0.842 2.76 0.399 3.197-1.39l5.797-25.346c0.514-2.234-0.866-3.108-2.443-2.56l-34.065 12.172c-2.325 0.842-2.29 2.052-0.395 2.6l8.709 2.528 20.229-11.814c0.952-0.588 1.818-0.263 1.106 0.326l-16.364 13.713z"></path>
</symbol>
<symbol id="icon-Github" viewBox="0 0 32 32">
<path fill="#fff" style="fill: var(--color1, #fff)" d="M16 0.941c-8.271 0-15.059 6.788-15.059 15.059 0 7.058 4.953 13.47 11.529 15.059v-4.982c-0.652 0.143-1.251 0.147-1.915-0.049-0.89-0.263-1.613-0.856-2.15-1.76-0.342-0.577-0.949-1.203-1.581-1.157l-0.155-1.758c1.368-0.117 2.551 0.833 3.254 2.013 0.312 0.525 0.671 0.832 1.132 0.969 0.446 0.131 0.924 0.068 1.481-0.129 0.14-1.116 0.651-1.534 1.037-2.122v-0.001c-3.922-0.585-5.486-2.666-6.106-4.308-0.822-2.181-0.381-4.905 1.073-6.627 0.028-0.034 0.079-0.121 0.060-0.183-0.667-2.014 0.146-3.679 0.176-3.856 0.769 0.228 0.894-0.229 3.342 1.258l0.423 0.254c0.177 0.105 0.121 0.045 0.298 0.032 1.022-0.278 2.099-0.431 3.16-0.445 1.069 0.014 2.14 0.167 3.204 0.456l0.137 0.014c-0.012-0.002 0.037-0.009 0.12-0.058 3.057-1.852 2.947-1.247 3.767-1.513 0.030 0.177 0.831 1.87 0.172 3.858-0.089 0.274 2.65 2.782 1.132 6.809-0.62 1.643-2.184 3.724-6.106 4.309v0.001c0.503 0.766 1.107 1.174 1.104 2.755v6.219c6.577-1.589 11.529-8.001 11.529-15.059 0-8.271-6.787-15.059-15.059-15.059v0z"></path>
</symbol>
<symbol id="icon-fasebook" viewBox="0 0 16 32">
<path fill="#fff" style="fill: var(--color1, #fff)" d="M14.266 15.97h-4.176v15.39h-6.327v-15.39h-3.009v-5.409h3.009v-3.5c0-2.503 1.182-6.422 6.384-6.422l4.687 0.020v5.25h-3.401c-0.558 0-1.342 0.28-1.342 1.474v3.183h4.729l-0.553 5.403z"></path>
</symbol>
    </defs>
</svg>